HIERARCHY
ROOT Hips
{
  OFFSET 179.979 97.3047 303.174
  CHANNELS 6 Xposition Yposition Zposition Zrotation Xrotation Yrotation
  JOINT Spine
  {
    OFFSET 0.000859786 9.92346 -1.22733
    CHANNELS 3 Zrotation Xrotation Yrotation
    JOINT Spine1
    {
      OFFSET 0 11.732 0
      CHANNELS 3 Zrotation Xrotation Yrotation
      JOINT Spine2
      {
        OFFSET 0 13.4588 0
        CHANNELS 3 Zrotation Xrotation Yrotation
        JOINT Neck
        {
          OFFSET 2.54812e-05 15.0278 0.877907
          CHANNELS 3 Zrotation Xrotation Yrotation
          JOINT Head
          {
            OFFSET 0 10.3218 3.14243
            CHANNELS 3 Zrotation Xrotation Yrotation
            End Site
            {
              OFFSET 0 0 0
            }
          }
        }
        JOINT LeftShoulder
        {
          OFFSET 6.10582 9.10629 0.757062
          CHANNELS 3 Zrotation Xrotation Yrotation
          JOINT LeftArm
          {
            OFFSET 0 12.9223 0
            CHANNELS 3 Zrotation Xrotation Yrotation
            JOINT LeftForeArm
            {
              OFFSET 0 27.4047 0
              CHANNELS 3 Zrotation Xrotation Yrotation
              JOINT LeftHand
              {
                OFFSET -1.28204e-05 27.6145 0
                CHANNELS 3 Zrotation Xrotation Yrotation
                End Site
                {
                  OFFSET 0 0 0
                }
              }
            }
          }
        }
        JOINT RightShoulder
        {
          OFFSET -6.1057 9.10638 0.757076
          CHANNELS 3 Zrotation Xrotation Yrotation
          JOINT RightArm
          {
            OFFSET 0 12.9223 0
            CHANNELS 3 Zrotation Xrotation Yrotation
            JOINT RightForeArm
            {
              OFFSET 0 27.4047 0
              CHANNELS 3 Zrotation Xrotation Yrotation
              JOINT RightHand
              {
                OFFSET 1.28428e-05 27.6145 1.44975e-05
                CHANNELS 3 Zrotation Xrotation Yrotation
                End Site
                {
                  OFFSET 0 0 0
                }
              }
            }
          }
        }
      }
    }
  }
  JOINT LeftUpLeg
  {
    OFFSET 9.12387 -6.65719 -0.0554031
    CHANNELS 3 Zrotation Xrotation Yrotation
    JOINT LeftLeg
    {
      OFFSET 0 40.5994 0
      CHANNELS 3 Zrotation Xrotation Yrotation
      JOINT LeftFoot
      {
        OFFSET 0 42.099 0
        CHANNELS 3 Zrotation Xrotation Yrotation
        JOINT LeftToeBase
        {
          OFFSET 0 15.7216 0
          CHANNELS 3 Zrotation Xrotation Yrotation
          End Site
          {
            OFFSET 0 0 0
          }
        }
      }
    }
  }
  JOINT RightUpLeg
  {
    OFFSET -9.12503 -6.6556 -0.0553527
    CHANNELS 3 Zrotation Xrotation Yrotation
    JOINT RightLeg
    {
      OFFSET 0 40.5994 0
      CHANNELS 3 Zrotation Xrotation Yrotation
      JOINT RightFoot
      {
        OFFSET 0 42.099 0
        CHANNELS 3 Zrotation Xrotation Yrotation
        JOINT RightToeBase
        {
          OFFSET 0 15.7216 0
          CHANNELS 3 Zrotation Xrotation Yrotation
          End Site
          {
            OFFSET 0 0 0
          }
        }
      }
    }
  }
}
MOTION
Frames:	18
Frame Time:	0.0333333
-260.54 98.0752 242.512 0.34877 0.374491 8.00239 -0.228922 -5.95237 -0.150902 -0.45091 2.04068 -0.273799 -0.417227 8.63508 -0.274327 3.33087 14.3295 -2.88187 -1.78596 -23.487 -1.65 -88.351 -16.9741 90.0233 5.477 20.7222 -23.0389 51.4686 -24.4151 -0.918098 -6.67767 -16.3526 12.7264 93.6267 -16.2188 -90.1175 -3.1621 18.1688 27.2046 -52.9373 -15.5289 1.00013 1.438 -14.8665 -14.052 -174.574 8.12515 -13.114 1.158 -21.9784 -6.98973 16.3592 75.3633 -20.7693 -0.965258 26.367 -3.60229 173.855 8.47665 13.9014 -3.51797 -21.2488 6.50114 -15.9479 77.5179 23.8284 0.963515 26.3682 3.55538 
-260.54 98.0752 242.512 0.348492 0.376633 7.99894 -0.228922 -5.95237 -0.150902 -0.45091 2.04068 -0.273799 -0.417227 8.63508 -0.274327 3.31907 14.3263 -2.87674 -1.78471 -23.4823 -1.64994 -88.3535 -16.9681 90.0223 5.47058 20.7172 -23.0382 51.4666 -24.4207 -0.918139 -6.68045 -16.3377 12.728 93.6267 -16.212 -90.1178 -3.1543 18.1691 27.2028 -52.9335 -15.534 1.00016 1.43574 -14.853 -14.0561 -174.571 8.12821 -13.114 1.15691 -21.9821 -6.99167 16.3645 75.363 -20.7741 -0.965258 26.367 -3.60229 173.857 8.48099 13.8984 -3.51758 -21.252 6.50129 -15.9516 77.5197 23.832 0.963515 26.3682 3.55538 
-260.547 98.0747 242.518 0.341907 0.388851 7.98234 -0.228922 -5.95237 -0.150902 -0.45091 2.04068 -0.273799 -0.417227 8.63508 -0.274327 3.23381 14.3096 -2.83535 -1.75116 -23.4572 -1.64168 -88.3677 -16.9332 90.0213 5.43305 20.6846 -23.0335 51.4551 -24.4562 -0.918398 -6.69856 -16.2448 12.7346 93.6264 -16.1688 -90.1197 -3.10443 18.1667 27.1916 -52.9139 -15.5666 1.00032 1.4239 -14.7786 -14.0821 -174.557 8.14806 -13.1146 1.14919 -22.0054 -7.00623 16.404 75.3655 -20.8108 -0.965258 26.367 -3.60229 173.866 8.50269 13.8899 -3.51556 -21.2685 6.50202 -15.9711 77.532 23.8461 0.963515 26.3682 3.55538 
-260.556 98.0743 242.524 0.334575 0.401077 7.96944 -0.228922 -5.95237 -0.150902 -0.45091 2.04068 -0.273799 -0.417227 8.63508 -0.274327 3.12977 14.3027 -2.78341 -1.67599 -23.4344 -1.63044 -88.3784 -16.9008 90.033 5.39792 20.6513 -23.0286 51.4408 -24.487 -0.918622 -6.71808 -16.1759 12.7187 93.6184 -16.13 -90.1235 -3.06237 18.1649 27.1831 -52.8997 -15.5871 1.00042 1.41742 -14.7338 -14.1321 -174.541 8.17158 -13.1152 1.14097 -22.0321 -7.02108 16.4425 75.3679 -20.8466 -0.965258 26.367 -3.60229 173.876 8.52403 13.8907 -3.51364 -21.2843 6.50272 -15.9906 77.5449 23.859 0.963515 26.3682 3.55538 
-260.563 98.0713 242.53 0.325728 0.412978 7.95792 -0.228922 -5.95237 -0.150902 -0.45091 2.04068 -0.273799 -0.417227 8.63508 -0.274327 3.03729 14.3106 -2.74573 -1.6011 -23.4158 -1.62936 -88.3892 -16.872 90.0355 5.36994 20.6252 -23.0248 51.4204 -24.4998 -0.918716 -6.73335 -16.1681 12.6783 93.6099 -16.1072 -90.1268 -3.03351 18.1632 27.1738 -52.8836 -15.586 1.00041 1.40887 -14.7039 -14.1882 -174.522 8.19463 -13.1178 1.13519 -22.0591 -7.02878 16.4679 75.3733 -20.8704 -0.965258 26.367 -3.60229 173.886 8.54407 13.8922 -3.51197 -21.2979 6.50332 -16.007 77.557 23.8675 0.963515 26.3682 3.55538 
-260.57 98.0686 242.535 0.314589 0.423812 7.94774 -0.228922 -5.95237 -0.150902 -0.450888 2.04517 -0.2738 -0.417205 8.63957 -0.274331 2.96039 14.3303 -2.73289 -1.5437 -23.4015 -1.64778 -88.3972 -16.8487 90.0376 5.34722 20.6053 -23.0219 51.3912 -24.5007 -0.918722 -6.74629 -16.1903 12.6792 93.5967 -16.0902 -90.1312 -3.00895 18.1619 27.1553 -52.8572 -15.5802 1.00038 1.38168 -14.6637 -14.2232 -174.501 8.21591 -13.138 1.13405 -22.0849 -7.02345 16.4669 75.3822 -20.8701 -0.965258 26.367 -3.60229 173.897 8.55876 13.8849 -3.50446 -21.3043 6.50386 -16.0142 77.5655 23.8656 0.963515 26.3682 3.55538 
-260.575 98.066 242.539 0.301992 0.433791 7.93908 -0.228912 -5.94841 -0.150901 -0.450851 2.05305 -0.273801 -0.417167 8.64746 -0.274336 2.90925 14.3615 -2.74174 -1.51101 -23.3923 -1.67807 -88.4006 -16.828 90.0376 5.32406 20.5956 -23.0208 51.361 -24.4915 -0.918655 -6.76018 -16.2094 12.7011 93.5855 -16.0764 -90.1349 -2.98358 18.1577 27.1433 -52.8232 -15.5704 1.00034 1.35252 -14.6315 -14.2717 -174.477 8.23703 -13.1745 1.13698 -22.1114 -7.0062 16.4424 75.3951 -20.8482 -0.965258 26.367 -3.60229 173.909 8.57005 13.8697 -3.49239 -21.3056 6.50438 -16.0132 77.5702 23.8552 0.963515 26.3682 3.55538 
-260.578 98.0634 242.542 0.292345 0.443269 7.93114 -0.228896 -5.94225 -0.150899 -0.450792 2.06538 -0.273803 -0.417108 8.65976 -0.274345 2.88404 14.399 -2.76795 -1.50167 -23.3905 -1.71575 -88.3987 -16.8142 90.0379 5.30642 20.5962 -23.0186 51.3232 -24.4867 -0.91862 -6.74062 -16.2215 12.6604 93.5773 -16.0642 -90.1376 -2.95506 18.1498 27.1371 -52.7886 -15.5592 1.00028 1.32753 -14.6102 -14.3383 -174.456 8.26097 -13.2196 1.14404 -22.1439 -6.98236 16.4082 75.4121 -20.8177 -0.965258 26.367 -3.60229 173.917 8.58738 13.8728 -3.49013 -21.3183 6.49855 -16.0187 77.5787 23.8537 0.963515 26.3682 3.55538 
-260.578 98.0605 242.546 0.28626 0.452694 7.92442 -0.228875 -5.9343 -0.150897 -0.450716 2.08128 -0.273806 -0.41703 8.67569 -0.274357 2.86875 14.4368 -2.80658 -1.50053 -23.3935 -1.76244 -88.3938 -16.8083 90.0387 5.29672 20.602 -23.008 51.2811 -24.4923 -0.918661 -6.7185 -16.1609 12.6472 93.5709 -16.0478 -90.1401 -2.93019 18.1375 27.1179 -52.7432 -15.5663 1.00032 1.30558 -14.5968 -14.4006 -174.44 8.28733 -13.2675 1.15155 -22.1825 -6.95567 16.3728 75.4329 -20.7863 -0.965258 26.367 -3.60229 173.917 8.61137 13.8955 -3.49781 -21.3444 6.47843 -15.9959 77.5938 23.8269 0.963515 26.3682 3.55538 
-260.577 98.0558 242.549 0.28318 0.462576 7.91946 -0.228851 -5.9254 -0.150895 -0.450631 2.09906 -0.273809 -0.416944 8.69346 -0.27437 2.83935 14.4749 -2.85403 -1.48276 -23.3925 -1.8246 -88.3871 -16.8033 90.0399 5.29409 20.6081 -22.9758 51.2359 -24.5029 -0.918738 -6.73198 -16.0784 12.6445 93.5662 -16.027 -90.1422 -2.91218 18.12 27.0798 -52.6859 -15.5929 1.00045 1.28683 -14.5899 -14.443 -174.424 8.3161 -13.3119 1.15834 -22.2251 -6.93041 16.3416 75.4554 -20.7584 -0.965258 26.367 -3.60229 173.917 8.63945 13.9236 -3.5092 -21.3778 6.45458 -15.9643 77.6105 23.7948 0.963515 26.3682 3.55538 
-260.576 98.0507 242.551 0.280691 0.474008 7.91803 -0.228828 -5.91655 -0.150892 -0.454986 2.11679 -0.27381 -0.421433 8.71119 -0.273855 2.78842 14.5148 -2.90916 -1.43959 -23.3815 -1.90404 -88.373 -16.7837 90.0432 5.28244 20.6117 -22.9077 51.1911 -24.5123 -0.918807 -6.79929 -16.0227 12.6431 93.5639 -16.0037 -90.1438 -2.89682 18.0983 27.0358 -52.6314 -15.6194 1.00058 1.26576 -14.595 -14.4665 -174.409 8.34888 -13.3451 1.16154 -22.2718 -6.91136 16.3243 75.4787 -20.7435 -0.965258 26.367 -3.60229 173.916 8.67147 13.9493 -3.52174 -21.416 6.43294 -15.9414 77.6272 23.7742 0.963515 26.3682 3.55538 
-260.575 98.0453 242.554 0.278595 0.48808 7.91833 -0.228807 -5.9087 -0.15089 -0.459664 2.13245 -0.273811 -0.426262 8.72685 -0.273301 2.70874 14.5667 -2.96782 -1.35118 -23.3533 -1.99947 -88.3669 -16.7543 90.045 5.27368 20.5914 -22.7923 51.1285 -24.5272 -0.918917 -6.86845 -16.0324 12.6328 93.563 -15.9757 -90.1453 -2.88 18.0696 26.9677 -52.579 -15.6522 1.00074 1.24135 -14.6083 -14.4465 -174.397 8.38541 -13.362 1.1593 -22.32 -6.90134 16.326 75.5014 -20.7457 -0.965258 26.367 -3.60229 173.914 8.70732 13.957 -3.52701 -21.4598 6.42532 -15.951 77.6435 23.7863 0.963515 26.3682 3.55538 
-260.574 98.0415 242.558 0.27676 0.505323 7.92022 -0.22879 -5.90257 -0.150889 -0.464493 2.14469 -0.273812 -0.431263 8.7391 -0.272727 2.59977 14.6418 -3.03887 -1.22938 -23.3236 -2.12053 -88.3681 -16.7263 90.0474 5.28176 20.5552 -22.657 51.0674 -24.5481 -0.919069 -6.86375 -16.1286 12.5166 93.5642 -15.9366 -90.1505 -2.85766 18.0452 26.9328 -52.5726 -15.6554 1.00075 1.24888 -14.6478 -14.3786 -174.389 8.41743 -13.3658 1.1509 -22.3537 -6.89929 16.3355 75.5176 -20.7533 -0.965258 26.367 -3.60229 173.913 8.74027 13.9647 -3.53507 -21.4917 6.4199 -15.9546 77.6526 23.7962 0.963515 26.3682 3.55538 
-260.57 98.0403 242.562 0.275058 0.526107 7.92525 -0.22878 -5.89847 -0.150887 -0.4689 2.15292 -0.269207 -0.436015 8.7473 -0.27218 2.49468 14.7489 -3.12534 -1.12945 -23.3199 -2.2561 -88.3724 -16.6932 90.0498 5.29247 20.5522 -22.6362 51.0923 -24.5305 -0.91894 -6.87444 -16.168 12.4064 93.5704 -15.8898 -90.1563 -2.83969 18.0235 26.9393 -52.5882 -15.6377 1.00066 1.26343 -14.6275 -14.3198 -174.384 8.44552 -13.3665 1.13824 -22.3704 -6.89992 16.3416 75.5255 -20.754 -0.965258 26.367 -3.60229 173.911 8.76843 13.9343 -3.53543 -21.5084 6.4413 -16.0143 77.6521 23.8676 0.963515 26.3682 3.55538 
-260.564 98.0389 242.566 0.273452 0.550457 7.93041 -0.228772 -5.89558 -0.150887 -0.472963 2.15864 -0.264061 -0.440865 8.75305 -0.266963 2.39574 14.8746 -3.20509 -1.03659 -23.3585 -2.38239 -88.3785 -16.6607 90.0526 5.31072 20.57 -22.6949 51.1553 -24.4887 -0.918635 -6.90668 -16.1791 12.3732 93.577 -15.8433 -90.1622 -2.82758 18.002 26.9401 -52.6261 -15.6237 1.0006 1.29411 -14.6164 -14.3289 -174.382 8.4705 -13.3723 1.12762 -22.3763 -6.89712 16.3399 75.5301 -20.7455 -0.965258 26.367 -3.60229 173.904 8.7986 13.9403 -3.5434 -21.5223 6.43968 -16.0072 77.6522 23.869 0.963515 26.3682 3.55538 
-260.557 98.0375 242.571 0.271742 0.57927 7.93718 -0.228769 -5.89428 -0.150886 -0.476204 2.16356 -0.259045 -0.444534 8.75797 -0.261884 2.31646 14.956 -3.25898 -0.965768 -23.3647 -2.47301 -88.3871 -16.6439 90.0539 5.34411 20.5776 -22.7321 51.194 -24.4647 -0.91846 -6.92609 -16.148 12.3947 93.581 -15.8078 -90.1668 -2.8246 17.98 26.9111 -52.6608 -15.6206 1.00058 1.31091 -14.6346 -14.3748 -174.386 8.49908 -13.3862 1.12546 -22.378 -6.8866 16.3214 75.5343 -20.7208 -0.965258 26.367 -3.60229 173.896 8.83319 13.9592 -3.55183 -21.5371 6.43164 -15.9786 77.6519 23.8482 0.963515 26.3682 3.55538 
-260.548 98.036 242.577 0.271515 0.614889 7.94128 -0.228767 -5.89363 -0.150886 -0.47863 2.16776 -0.253579 -0.449208 8.76218 -0.256407 2.27219 14.9944 -3.29446 -0.935148 -23.3507 -2.52912 -88.3947 -16.648 90.0533 5.38445 20.5736 -22.7261 51.2179 -24.4665 -0.918473 -6.9359 -16.1287 12.4418 93.5824 -15.7958 -90.1694 -2.8434 17.9673 26.8772 -52.675 -15.6306 1.00063 1.26512 -14.6052 -14.3951 -174.396 8.53211 -13.4099 1.13256 -22.3797 -6.8699 16.2929 75.5395 -20.6874 -0.965258 26.367 -3.60229 173.885 8.87641 13.9811 -3.55868 -21.5568 6.42086 -15.9406 77.6515 23.818 0.963515 26.3682 3.55538 
-260.537 98.0343 242.585 0.27135 0.655954 7.93878 -0.228766 -5.89349 -0.150886 -0.48094 2.17066 -0.244736 -0.453207 8.76508 -0.247425 2.27116 15.0079 -3.32029 -0.93471 -23.3323 -2.55663 -88.3954 -16.6551 90.053 5.40192 20.5697 -22.721 51.237 -24.4646 -0.918459 -6.92646 -16.1422 12.535 93.5907 -15.8128 -90.1682 -2.88909 17.954 26.8412 -52.6636 -15.6557 1.00075 1.21268 -14.5908 -14.4357 -174.409 8.57117 -13.4455 1.14384 -22.3848 -6.84883 16.259 75.5483 -20.6536 -0.965258 26.367 -3.60229 173.871 8.92622 14.0029 -3.56683 -21.579 6.40615 -15.8924 77.6522 23.7784 0.963515 26.3682 3.55538 
